<?xml version="1.0" encoding="UTF-8"?>
<svg width="1200pt" height="1200pt" version="1.1" viewBox="0 0 1200 1200" xmlns="http://www.w3.org/2000/svg">
 <path d="m912.11 566.08h100.65l-168.85-284.91-168.83 284.91h100.62v29.266c-0.054687 4.2383 0.13281 10.16-0.13281 13.453-0.21484 3.5352-0.38672 7.1719-0.60156 10.895 0 7.5195-2.0781 15.121-3.0547 23.215-3.6133 15.879-9.4805 32.613-18.387 49.078-8.9336 16.441-21.586 32.027-36.801 45.68-30.387 27.453-72.812 44.734-116.75 44.746-43.934-0.011718-86.332-17.309-116.75-44.746-15.188-13.641-27.867-29.227-36.801-45.68-8.9062-16.453-14.762-33.188-18.387-49.078-0.93359-8.0938-3.0547-15.691-3.0547-23.215-0.21484-3.7188-0.38672-7.375-0.57422-10.895-0.28125-3.293-0.078125-9.1992-0.16016-13.453v-29.266h100.65l-168.82-284.91-168.83 284.91h100.62v29.266c0.078125 4.9453-0.16016 8.5742 0.16016 15.039 0.28125 6.2383 0.60156 12.652 0.93359 19.238 0.38672 13.172 3.3086 26.922 5.5742 41.215 6.2266 28.387 16.746 58.332 32.734 87.52 16.012 29.172 38.172 56.934 65.133 81.066 26.973 24.094 59.215 44.293 94.762 58.094 35.52 13.867 74.266 21.172 112.81 21.293 38.547-0.12109 77.32-7.4258 112.81-21.293 35.547-13.801 67.785-34.012 94.762-58.094 26.973-24.148 49.121-51.895 65.133-81.066 16.012-29.188 26.508-59.148 32.762-87.52 2.2383-14.293 5.1602-28.039 5.5742-41.215 0.30859-6.5859 0.625-13.012 0.93359-19.238 0.28125-6.4648 0.078126-10.094 0.13281-15.039-0.003906-10.598-0.003906-20.332-0.003906-29.266z"/>
</svg>
