<?xml version="1.0" encoding="UTF-8"?>
<svg width="1200pt" height="1200pt" version="1.1" viewBox="0 0 1200 1200" xmlns="http://www.w3.org/2000/svg">
 <g>
  <path d="m647.61 645.65v-120.96-66.039-34.16c-0.027343-6.0273 0.10547-10.922-0.078125-17.934-0.38672-7.6133-0.78516-15.266-1.1719-22.945-5.6797-61.254-31.906-123.49-77.16-169.92-44.508-46.719-106.54-78.719-172.16-85.906-65-7.332-133.23 7.9609-187.27 43.961-54.121 35.508-94.867 88.719-114.09 147.56-9.668 29.348-14.375 59.68-14.719 89.227 0.28125 29.586 4.8125 58.535 13.055 85.652 8.7188 26.988 21.148 51.762 35.812 73.961 15.266 21.773 32.48 40.988 51.281 56.945 37.625 31.945 80.266 50.801 119.24 59.867 19.559 4.4805 38.281 6.668 55.547 7.1055 9.5352 0.51953 14.641 0.28125 20.934 0.34766h17.238 68.668l-0.003906-136.38h-68.668-17.238c-5.7852-0.027344-13.309 0.13281-16.934-0.28125-9.0664-0.21484-18.746-1.375-28.852-3.668-20.055-4.7461-42.055-14.332-61.668-30.961-9.7852-8.3086-18.641-18.414-26.719-29.602-7.4805-11.613-13.934-24.359-18.52-38.238-4.0938-14.027-6.4258-28.922-6.7461-44.453 0.30859-15.52 2.7617-31.105 7.6523-46.254 9.7617-30.332 31.227-58 59.215-76.535 28-18.773 62.973-26.281 97.105-22.719 33.934 3.6797 65.785 20.293 89.121 44.559 23.801 24.16 36.801 56.281 40 87.934l0.60156 11.988c0.21484 4.5859 0.054687 11.238 0.10547 16.719v34.16 66.039 120.96 143.48h-100.62l168.88 284.84 168.82-284.87h-100.65v-143.48z"/>
  <path d="m1119 624.25-284.87-168.86v100.63h-136.36v136.41h136.36v100.64z"/>
 </g>
</svg>
