<?xml version="1.0" encoding="UTF-8"?>
<svg width="1200pt" height="1200pt" version="1.1" viewBox="0 0 1200 1200" xmlns="http://www.w3.org/2000/svg">
 <path d="m210.46 797.51 9.1875 10.055 9.625 8.8125 19.387 17.398 20.961 15.492c6.8789 5.332 14.215 9.9336 21.773 14.238 7.5078 4.332 14.828 9 22.52 12.934 15.68 7.2656 31.094 15.148 47.52 20.266 64.719 23.586 134.33 26.707 198.48 15.039 64.078-13.055 122.61-41.387 168.89-79.773 5.8398-5.2539 11.613-10.48 17.375-15.668 5.668-5.2148 11.852-10.734 15.16-14.895 7.9883-8.9453 15.84-17.762 23.574-26.426 15.465-17.32 30.387-34.078 44.734-50.16 41.012-46.027 77.039-86.426 106.54-119.51l76.535 66.746 60-325.68-314.49 103.73 75.148 65.535c-28.852 32.398-63.852 71.652-103.64 116.29-14.188 15.922-28.973 32.508-44.266 49.68-7.6523 8.6016-15.441 17.32-23.332 26.199-4.2383 5.1328-7.3203 7.332-10.602 10.281-3.2383 2.9336-6.4922 5.8945-9.7734 8.8672-29.375 24.332-66.812 42.281-107.72 50.852-41.094 7.1875-85.895 5.5469-127.16-9.7344-10.586-3.0547-20.238-8.4414-30.348-12.84-4.9062-2.5078-9.5078-5.6133-14.309-8.3203-4.8516-2.668-9.5859-5.5586-13.906-9.0781l-13.48-9.8125-12.387-11.293-6.2656-5.5742-5.1719-5.8398c-3.3984-3.9336-7.3203-7.4805-10.078-11.879-25.988-32.453-38.227-74.559-37.16-115.33 0.66797-41.172 17.027-80 41.668-109.89l9.7617-10.84c3.2539-3.3594 6.5859-5.8789 9.7344-8.9883 6.7188-5.4648 13.746-10.32 21.121-14.426 14.801-8.0781 30.879-13.055 46.945-14.934 32.309-3.8672 63.348 4.8516 86.801 20.012 24.398 16.895 37.625 34.293 43.359 53.641 2.9336 9.4805 4.2266 18.785 4.4258 27.453-0.39844 8.6016-0.97266 16.586-3.1055 23.441-3.5078 13.879-9.5586 23.508-13.973 29.668-4.1992 6.3867-7.6914 8.9219-7.4648 9.0938l99.668 93.148s1.707-1.9062 5.0117-5.5469c3.4258-3.5586 7.9883-9.2656 13.559-17.078 11.066-15.441 26.172-40 35.188-74.719 4.8398-17.227 7.1875-36.988 7.5469-58.48-0.23828-21.48-3.4141-44.746-10.906-68.52-7.3984-23.773-19.641-47.895-36.852-69.879-17.734-22.492-37.945-40.215-61.934-56.465-48.254-31.465-111.88-49.148-177.51-41.199-32.707 3.8789-65.707 14.039-96.172 30.707-15.227 8.375-29.719 18.32-43.332 29.559-6.4805 5.8672-13.414 11.773-19.398 17.922-5.6523 6.2812-11.359 12.547-17.055 18.879-43.641 52.332-71.973 121.45-73.441 193.25-2.1719 71.348 20.078 145.41 65.453 202.83 5.1797 7.4727 11.555 13.938 17.578 20.754z"/>
</svg>
