<?xml version="1.0" encoding="UTF-8"?>
<svg width="1200pt" height="1200pt" version="1.1" viewBox="0 0 1200 1200" xmlns="http://www.w3.org/2000/svg">
 <path d="m901.28 1071.5-88.426-319.15-69.559 72.387c-29.547-28.387-65.945-63.375-107.51-103.29-28.359-27.254-59.066-56.773-91.559-87.988-15.652-15.094-31.734-30.586-48.16-46.426-14.281-12.945-23.906-26.828-33.785-42.414-9.3203-15.641-15.945-33.027-21.105-51.039-4.3867-18.254-6.3203-37.281-6.0117-56.426 0.93359-19.172 4.625-38.188 10.48-56.586 6.3867-18.254 15.652-35.375 26.586-51.426 12.215-16.121 24.078-28.547 38.773-38.602 14.465-10.012 30.746-17.281 47.734-21.426 34.094-8.6016 70.441-3.4414 99.707 11.84 3.7461 1.7734 7.4258 3.668 10.773 6.1055 3.3594 2.3867 7.1328 4.0938 10.172 6.9453l9.4922 7.6133 7.6016 7.5586c9.5078 10.492 16.453 22.586 20.785 35.309 8.7617 25.559 6.4531 52.828-3 74.055-4.6914 10.52-11.559 20.227-18.266 27.734-6.1602 6.6523-13.039 11.508-20.133 15.012-14.387 6.5352-29.027 7.7188-40.199 5.6914-11.309-1.8672-19.348-5.9453-24.535-9.0664-2.5469-1.6914-4.6406-2.7852-5.7734-3.9609-1.2383-1-1.8945-1.5078-1.8945-1.5078l-86.508 105.46s1.9219 1.5195 5.625 4.4648c3.6016 3.0547 9.4805 6.9453 17.266 11.852 15.613 9.4805 40.359 21.945 74.375 27.465 33.641 5.6406 77.012 3.0781 120.6-17.398 21.559-10.398 42.812-25.453 60.934-45.012 17.254-18.922 32-40.441 43.332-65.773 22.359-50.254 27.734-113.35 7.2383-173.11-10.105-29.762-26.652-58.48-48.879-82.934-5.5586-6.0664-11.625-11.707-17.602-17.492-6.0391-5.2812-12.215-10-18.426-14.961-6.0547-5.1328-13.066-9.0664-19.734-13.52-6.6523-4.5195-13.719-8.3594-21.012-11.945-57.535-29.879-127.92-39.465-193.95-23.055-33 8-64.84 22.148-93.16 41.734-28.453 19.281-52.961 45.227-71.922 71.027-18.801 26.922-34.375 56.188-45.105 87.188-10.215 31.121-16.309 63.375-17.707 95.68-0.80078 32.293 2.5469 64.348 10.148 95.133 8.3477 30.535 19.922 59.895 35.668 86.465 3.5742 6.8398 8.332 12.922 12.48 19.332 4.332 6.293 8.4141 12.734 13.441 18.398 4.8672 5.8008 9.6914 11.559 14.508 17.309 4.8789 5.6016 10.078 10.215 15.105 15.281 17.52 16.879 34.668 33.398 51.375 49.492 32.281 31.012 62.801 60.348 90.973 87.441 41.039 39.441 77 74 106.28 102.12l-69.895 72.734z"/>
</svg>
