<?xml version="1.0" encoding="UTF-8"?>
<svg width="1200pt" height="1200pt" version="1.1" viewBox="0 0 1200 1200" xmlns="http://www.w3.org/2000/svg">
 <path d="m284.19 786.65c-0.41406 13.441-0.8125 26.988-1.2266 40.652 0.33203 7.8945 0.69141 15.812 1.0391 23.746l0.67969 11.961 1.8281 12.441c4.1211 32.668 15.266 68.641 36.973 101.16 21.348 32.668 54.012 59.508 88.691 74.812 34.785 15.668 70.492 21.625 104.12 22.602 67.602 1.5195 128.87-15.027 184.73-39.785 28-12.359 54.535-27.414 79.426-45.039 24.879-17.652 48.387-37.465 69.16-61.066 20.641-23.641 38.934-50.828 51.465-82.238 6.4805-15.453 10.906-32.508 13.574-49.625 0.93359-8.5195 2.2656-17.906 2.3594-25.602-0.011719-7.625 0.14844-15.066-0.1875-22.719-1.4922-30.508-8.5078-64.707-28.133-96.508-9.4805-15.801-22.785-30.238-37.465-41.602-14.801-11.559-31.105-19.398-46.945-24.922-31.934-10.535-61.133-10.641-86.574-7.8398-25.535 3.0391-47.84 9.6133-67.762 17.613-39.812 16.078-70.293 38.332-93.133 61.199-22.961 22.625-37.172 47.105-45.133 64.906-7.668 18.332-9.8398 29.359-9.8398 29.359l132.46 32.602s0.41406-2.1719 2.293-7.1211c2.4648-4.8789 6.4805-13.281 17.055-23.652 10.16-10.266 26.453-22.48 47.359-30.812 10.293-4.1719 21.68-7.3594 32.52-8.6133 10.773-1.2812 21.055-0.54688 27.387 1.6797 6.2383 2.6797 8.8281 3.9883 12 9.3477 3.2812 5.1055 7.0547 15.867 7.6797 31.227 0.027344 3.9883 0.039063 8 0.054688 12.027-0.011719 3.9609-0.83984 6.1992-0.93359 9.4414 0.1875 2.9883-1.5469 6.2148-2.0273 9.3867-0.41406 3.1719-2.1055 6.5195-3.3594 9.8789-5.3594 13.508-14.641 28.121-26.973 42.293-25.281 28.133-61.602 54.105-102.08 71.895-40.16 18.148-85.266 29.172-125.05 27.934-19.785-0.50781-37.84-4.1719-51.746-10.52-14.012-6.3867-23.785-14.773-31.453-26.172-7.6016-11.348-13.359-26.48-15.465-45.012l-1.1484-6.6914-0.26562-7.293-0.76172-14.613c0.375-11.84 0.76172-23.602 1.1211-35.254 2.9453-93.414 22.453-179.89 44.508-251.93 16.762-53.84 35.934-99.492 52.84-135.36l84.668 52.133 5.5977-331.09-293.16 154.04 86.105 53.039c-20.707 42.574-45.055 98.535-66.227 166.45-24.973 81.348-47.121 179.54-50.652 287.25z"/>
</svg>
