<?xml version="1.0" encoding="UTF-8"?>
<svg width="1200pt" height="1200pt" version="1.1" viewBox="0 0 1200 1200" xmlns="http://www.w3.org/2000/svg">
 <g>
  <path d="m966.92 613.83v-44.293c-0.027344-31.973-0.027344-69.293-0.054687-109.27 0.30859-56.691-23.574-117.71-66.801-160.33-42.602-43.199-103.61-67.078-160.33-66.801-39.973 0-77.293-0.027344-109.27-0.027344h-106.31v136.4h106.31c31.828 0 68.906 0.027344 108.67 0.027344 23.066-0.027344 47 9.375 64.48 26.852 17.508 17.508 26.879 41.398 26.852 64.508 0.027344 39.734 0.027344 76.852 0.054688 108.64v44.293h-100.65l168.83 284.87 168.85-284.87z"/>
  <path d="m460.89 830.44c-23.094 0.054688-47.027-9.3477-64.508-26.852-17.48-17.48-26.879-41.387-26.852-64.48 0-39.762-0.027344-76.852-0.027344-108.64v-30.961h100.62l-168.84-284.87-168.83 284.87h100.65v30.961c0 31.973 0.027343 69.266 0.027343 109.24-0.28125 56.719 23.602 117.73 66.801 160.33 42.602 43.227 103.64 67.105 160.33 66.828 39.973 0 77.293 0.027343 109.27 0.027343h106.31v-136.4h-106.31c-31.797-0.03125-68.902-0.03125-108.65-0.054688z"/>
 </g>
</svg>
