<?xml version="1.0" encoding="UTF-8"?>
<svg width="1200pt" height="1200pt" version="1.1" viewBox="0 0 1200 1200" xmlns="http://www.w3.org/2000/svg">
 <path d="m786.64 639.39v-292.03c-0.027344-6.9336-0.066406-13.867-0.09375-20.84-0.58594-9.7734-0.53516-19.652-2.4414-29.398-2.4258-19.719-8.8789-38.785-16.52-57.16-16.641-36.148-42.375-68.105-74.465-90.934-31.84-23.199-69.375-38.348-108.23-43.613-38.668-5.6523-78.613-2.1211-116.12 11.039-37.547 12.668-71.773 35.426-98.922 65.215-26.68 30.066-46.574 67.785-53.426 108.31l-2.3984 15.16-0.93359 15.238-0.33203 7.6016-0.027344 5.5078v10.441 41.465 81.359 292.03 284.91h136.4v-284.91-292.03-81.359-41.465-10.441l0.039063-4.9336 0.22656-2.8398 0.23828-5.707 0.98828-5.5859c2.293-14.961 10.027-29.16 20.68-41.535 11.172-12 25.602-22.133 42.188-27.535 16.266-5.8516 34.668-7.5195 52.133-4.8672 17.453 2.2383 33.773 9.0664 47.281 18.895 13.801 9.5742 23.652 22.84 30.199 36.387 2.5742 7.0391 5.4648 13.973 6.0664 21.32 0.98828 3.5586 0.46484 7.3203 0.97266 10.945 0.027344 6.4805 0.054688 12.945 0.09375 19.375v292.03 172.95h-100.65l168.83 284.88 168.85-284.88h-100.62v-172.99z"/>
</svg>
