<?xml version="1.0" encoding="UTF-8"?>
<svg width="1200pt" height="1200pt" version="1.1" viewBox="0 0 1200 1200" xmlns="http://www.w3.org/2000/svg">
 <path d="m211 974.95c52.508 36.441 120.6 54.227 187.05 46.547 66.934-7.0781 131.39-41.309 175.73-92.84 22.293-25.68 39.785-55.602 51.148-87.641 3.1484-7.9336 5.3867-16.105 7.3984-24.359l3.0938-12.32 2-12.52c1.332-8.3594 2.5742-16.691 2.7852-25.094 0.38672-7.9453 0.96094-17.961 0.8125-23.293v-148.03-70.707l-0.16016-9.6016 0.13281-5.0273c0.23828-3.8125 0.35938-7.8281 0.96094-11.707 0.46484-3.9219 0.93359-7.8125 1.8281-11.508 0.60156-3.8281 1.5078-7.4258 2.5742-10.84 3.8789-14 9.668-25.148 15.906-33.641 6.5859-8.1055 14.148-13.559 22.652-18.332 4.6914-1.9609 9.6133-3.6523 14.48-5.5586 5.7617-0.86719 11.039-2.2539 16.586-3.3477 6.1719-0.22656 12.16-0.58594 18-1.0781 2.375-0.34766 7.0547-0.23828 10.988-0.26562h11.879 65.906v100.64l284.88-168.82-284.87-168.86v100.64h-65.906-11.879c-4.1484 0.027343-7.625-0.12109-13.52 0.28125-10.707 0.70703-21.719 1.4258-33.055 2.1875-11.668 1.8789-23.879 4.625-36.148 7.375-12.426 4.0273-25.332 8.6914-38.055 14.641-25.465 13.055-50.332 32.133-69.535 56.668-18.773 24.535-31.879 52.52-39.762 80.895-2.0781 7.1211-3.8281 14.281-5.0781 21.453-1.5352 7.1992-2.5195 14.441-3.4141 21.734-0.96094 7.293-1.3594 14.668-1.7734 22.238-0.078126 4.1211-0.28125 7.0781-0.1875 12.148l0.13281 5.668v2.0273 70.707 148.03c0.13281 7.2812-0.44141 9.8672-0.54688 14.559 0.078125 4.2812-0.70703 8.4648-1.3984 12.641l-0.87891 6.3203-1.668 6.1211c-0.96094 4.1484-1.9727 8.2656-3.668 12.188-5.6797 15.988-14.426 31.039-25.68 44.012-22.508 26.039-54.668 43.281-88.227 46.719-33.906 3.6914-67.574-5.0781-94.094-23.332-26.746-18.215-44.973-45.492-53.801-73.309-4.2383-14.066-5.7617-28.414-5.8789-42.348 0.10547-14.027 2.8398-27.148 6.2266-39.48 8.1719-24.215 21.398-44.613 36.973-58.668 15.281-14.375 31.535-23.254 45.441-28.602 13.852-5.6797 25.707-6.9727 33.602-8.2812 8.0547-0.48047 12.348-0.74609 12.348-0.74609l-3.1992-136.38s-8.4922 0.078125-24.348 1.5352c-15.762 2.2148-39.266 5.4258-67.133 16.453-27.812 10.625-60.188 28.375-90.414 56.879-30.414 28.066-57.48 68.066-73.387 116.85-7.2148 24.535-12.215 50.961-12.508 78.453-0.078125 27.414 3.2539 55.973 11.801 84.133 17.363 55.961 53.949 109.61 106.84 145.79z"/>
</svg>
