<?xml version="1.0" encoding="UTF-8"?>
<svg width="1200pt" height="1200pt" version="1.1" viewBox="0 0 1200 1200" xmlns="http://www.w3.org/2000/svg">
 <path d="m1015.9 270.49c-25.238-42.453-69.266-71.199-115.88-78.32-5.8125-0.97266-11.586-1.6797-17.398-1.8672l-8.668-0.35938h-5.2812-20.332-39.719-75.332-288.2l-0.007812-100.64-284.88 168.85 284.87 168.83v-100.64h288.2 75.332 39.719 20.332l4.9453 0.011719 1.5859 0.17188c1.0938-0.09375 2.1328 0.12109 3.1484 0.30859 8.1484 1.1484 16.227 6.332 20.734 14.094 4.7344 7.2148 5.5469 17.547 2.293 25.934-3 8.4922-11.012 15.879-19.922 18.105-2.2148 0.71875-4.5586 0.94531-7 1.0273l-0.93359 0.13281h-20.57-47.375-95.734-48.199-30.184c-2 0-3.6406-0.054687-7.6016 0.13281-6.8008 0.28125-13.574 0.54688-20.332 1.7461-54.508 7.5078-103.31 44.012-126.15 93.535-23.719 49.375-20.547 109.49 7.4531 155.8 27.055 46.48 77.867 77.48 130.62 80.852l9.8125 0.46484 3.9062 0.078126h14.508 23.066 45.652 5.6523c1.9336 0 1.5352 0.16016 2.4258 0.16016 1.1992-0.054688 2.3477 0.10547 3.4414 0.35938 2.2656 0.21484 4.3477 1.0391 6.4531 1.7461 4.1484 1.625 7.8125 4.4648 10.84 7.7617 6.1719 6.6523 8.4922 15.332 7.3203 24.012-1.0664 8.2148-5.8398 15.68-12.426 20.309-3.2539 2.3203-6.8281 3.8516-10.492 4.668-1.8789 0.33203-3.7188 0.65234-5.6797 0.65234 0 0.1875-4.4805 0.10547-7.1875 0.13281h-9.1211-17.922-2.2383l-3.7188 0.13281-7.4258 0.35938c-4.9219 0.16016-9.8125 0.87891-14.668 1.6406-19.375 3.0273-37.785 9.4531-54.188 18.414-32.707 18.16-57.16 45.879-70.934 76.227-28.387 61.746-13.199 125.75 14.293 164.17 27.625 39.535 63.691 56.852 87.812 64.32 12.348 3.6406 22.055 5.2383 28.613 6.0391 6.5352 0.90625 9.9453 0.85156 9.9453 0.85156l8.4141-136.15s-2.5742 0.12109-6.9062-1.1484c-4.1719-1.3867-10.707-4.4258-15.785-11.641-2.5742-3.4922-4.1719-7.9453-4.9453-13.012-0.8125-5.2539 0.027343-11.078 2.4531-16.348 2.3203-5.4141 7-10.465 12.762-13.801 2.9727-1.5586 6.1484-2.625 9.6133-3.1719 0.85156-0.13281 1.7188-0.41406 2.6523-0.30859l1.3594-0.078125 0.70703-0.10547h2.1875 17.922 9.1211c3.3867-0.027344 5.0273 0.10547 11.172-0.1875 10.387-0.23828 20.906-1.6133 31.332-3.8516 20.852-4.6133 41.227-13.465 59.238-26.172 36.121-25.078 62.973-66.613 69.188-113.46 6.7461-46.039-7.625-97.281-40.961-133.64-16.426-18.238-37.027-33.199-60.387-42.762-11.719-4.6406-23.934-8.3594-36.508-10.254-6.2812-1.0781-12.574-1.7852-18.906-1.9609l-8.8516-0.30859h-5.6523-45.652-23.066-15.961l-0.46484-0.078126c-0.60156-0.078124-1.1992-0.10547-1.8008-0.10547-9.3203-0.51953-18.492-6.0664-23.387-14.559-5-7.8945-5.5742-19.332-1.332-27.828 3.9609-8.8789 13.094-15.652 22.547-16.785 1.1719-0.35938 2.4805-0.1875 3.6914-0.33203 0.054687-0.12109 2.4531-0.10547 4.4805-0.10547h30.188 48.199 95.734 47.375 20.57l4.9219-0.17188c13.121-0.39844 26.359-2.2266 39.066-5.8398 51.309-13.746 93.309-52.801 111.31-100.92 18.547-48.062 13.027-102.84-12.918-145.12z"/>
</svg>
