<?xml version="1.0" encoding="UTF-8"?>
<svg width="1200pt" height="1200pt" version="1.1" viewBox="0 0 1200 1200" xmlns="http://www.w3.org/2000/svg">
 <path d="m199.83 883.57 284.86 168.82v-100.62h185.41c39.188-0.027344 81.641-0.027344 126.56-0.027344 35.988-0.1875 72.84-12.027 102.52-31.973 29.602-20.188 52.762-47.133 69.348-76.852 16.254-29.867 26.172-62.625 29.922-96.039 3.6133-33.309 1.668-67.48-7.668-101.07-9.3867-33.387-24.906-66.332-49.602-94.691-11.945-14.375-26.84-27.078-43.027-38.309-16.773-10.734-35.293-19.691-55.492-25.078-10.066-2.3984-20.398-4.6914-30.812-5.3594l-15.668-0.85156-9.8945-0.027344h-39.012-77.492-150.73-9.1484l-4.3984-0.027344-1.7852-0.21484c-1.1875-0.10547-2.3867-0.13281-3.5859-0.10547-1.1602-0.30859-2.3203-0.57422-3.4922-0.76172-2.3984-0.027344-4.6016-1.5352-7-1.8789-2.2539-1.3086-4.707-1.8281-6.9727-3.3594-9.2656-5.3086-18.641-13.773-25.895-24.867-14.68-22.293-20.773-51.535-18.707-77.652 2.1719-25.879 11.012-48.254 22.398-62.375 11.133-14.586 22.945-21.387 31.691-23.934 4.4258-1.6133 8.3867-1.9062 11.879-2.0781 0.58594-0.30859 6.5352-0.1875 9.8398-0.21484h10.215 18.746v-136.4h-18.746-10.215c-4.2148 0.054688-6.4531-0.1875-14.719 0.28125-14.148 0.54688-30.668 2.6016-47.895 8.2539-34.812 10.465-71.906 35.055-99.199 71.254-27.934 35.879-45.879 83.227-50.039 135.21-3.6914 51.508 6.4531 110 41.105 163.09 17.375 26.281 41.734 50.934 73.48 68.773 7.7617 4.5859 16.559 8.0664 25.078 11.719 9.0391 2.8125 17.879 6.2539 27.453 7.7617l14.254 2.5469 14.52 1.0117 7.293 0.33203h13.867 150.73 77.492 39.012l9.6523 0.027344c1.2812 0.1875 2.5469 0.30859 3.8398 0.33203 2.5859-0.027344 5.0547 0.85156 7.625 1.2812 20.254 4.293 43.426 29.945 51.762 62.16 9.0781 32.133 4.1211 69.508-10.121 95.359-7.293 12.922-16.625 22.973-25.879 29.426-9.4922 6.0664-18.266 8.5195-27.121 8.8281-44.691 0.027344-86.945 0.027344-125.96 0.054688h-185.41v-100.65z"/>
</svg>
