<?xml version="1.0" encoding="UTF-8"?>
<svg width="1200pt" height="1200pt" version="1.1" viewBox="0 0 1200 1200" xmlns="http://www.w3.org/2000/svg">
 <g>
  <path d="m320.79 841.25c-7.625-0.70703-16.453-2.0781-26.332-3.668-13.414-3.4141-29.375-7.3984-41.172-15-12.375-7.1875-21.801-15.879-27.453-25.84-5.3594-10.105-7.6797-22.707-7.1328-37-0.10547-14.039 5.0547-29.668 9.3477-42.785 5.707-13.332 10.574-24.719 15.625-32.508 4.4805-7.8945 7.0273-12.398 7.0273-12.398l-115.49-72.574s-3.8281 6.6406-10.492 18.199c-6.9453 11.227-15.332 29.121-24.348 51.309-7.8945 23.094-17.027 50.84-17.945 85.105-1.5586 33.492 4.5352 73.199 23.906 108.44 19.398 35.215 49.691 61.613 78.801 78.199 29.453 17.547 57.762 24.668 81.508 30.387 22.375 4.0391 40.988 6.3984 54.148 6.7461v101.67l284.89-168.83-284.89-168.86z"/>
  <path d="m758.69 200.39c-9.6914-8.6406-18.906-18.773-31.719-27.453-6.1484-4.5078-12.426-9.1484-19.039-13.668-7.2148-3.9883-14.559-8.0547-22.027-12.215-30.652-15.465-68.227-26.426-107.16-26.586-38.961 0.16016-76.535 11.121-107.16 26.586-7.5078 4.1484-14.84 8.2266-22.027 12.215-6.6406 4.5352-12.895 9.1719-19.066 13.668-12.812 8.6406-22.027 18.801-31.691 27.453-16.535 17.027-29.148 32.078-37.055 43.602l-88.773-51.254 3.7734 331.15 288.67-162.29-84.613-48.852c4.1211-4.8398 8.9062-10.055 14.121-15.547 5.6016-4.668 10.988-11.309 17.734-15.359 3.2266-2.375 6.5352-4.8125 9.9219-7.3203 3.5469-1.8008 7.1055-3.7188 10.707-5.7852 14.559-7.1602 30.055-11.559 45.465-11.852 15.387 0.28125 30.906 4.6914 45.465 11.852 3.5742 2.0547 7.1328 3.9883 10.707 5.7852 3.3594 2.5078 6.668 4.9453 9.8945 7.3203 6.7734 4.0664 12.133 10.707 17.734 15.359 10.414 10.988 19.066 20.762 24.172 28.879 5.4648 7.707 8.6016 12.105 8.6016 12.105l114.95-73.414s-4.6406-6.668-12.785-18.332c-7.75-11.762-21.152-27.828-38.793-46.043z"/>
  <path d="m1057.1 668.99c-8.5195-20.961-16.426-37.895-23.148-49.172l83.828-48.414-288.64-162.31-3.7734 331.15 90.492-52.238c4.3203 7.5469 8.6406 17.453 13.574 28.961 4.293 13.121 9.4531 28.746 9.3477 42.785 0.54688 14.293-1.7734 26.906-7.1328 37-5.6523 9.9453-15.078 18.641-27.453 25.84-11.801 7.6016-27.762 11.586-41.172 15-14.266 2.3203-26.508 4.2656-35.785 4.1719-9.0664 0.44141-14.215 0.70703-14.215 0.70703l0.44141 136.4s7.6523-0.30859 21.012-0.87891c13.172-0.13281 32.785-2.6016 56.359-6.8516 23.746-5.7344 52.055-12.84 81.508-30.387 29.121-16.586 59.398-43 78.801-78.199 19.375-35.238 25.465-74.945 23.906-108.44-0.91016-34.297-10.055-62.031-17.949-85.121z"/>
 </g>
</svg>
