<?xml version="1.0" encoding="UTF-8"?>
<svg width="1200pt" height="1200pt" version="1.1" viewBox="0 0 1200 1200" xmlns="http://www.w3.org/2000/svg">
 <path d="m1048.6 644.28c-44.559-56.078-112.87-85.359-174.84-85.801-175.73-0.09375-292.89-0.14844-292.89-0.14844v136.4s116.23 0.054687 290.57 0.13281c25.266 0.25391 52.348 11.895 70.707 34.719 8.9062 11.414 15.625 24.961 18.574 39.762 2.707 14.852 2.0273 31.066-2.5078 45.961-9.293 29.828-36.012 55.852-68.414 62.535-4.0391 0.71875-8.1211 1.4922-12.266 1.8008l-6.2812 0.32031c-0.78516 0.10547-2.4531 0.13281-4.3984 0.12109h-5.4141-43.492-87.398-174.15-85.359c-13.801-0.039062-27.52-0.066406-41.172-0.09375-8.0547-0.46484-16.039-0.93359-23.52-3.375-30.465-7.9609-54.453-32.719-63.254-59.934-1.3086-3.3477-1.7188-6.9453-2.8672-10.293-0.41406-3.5469-1.1484-6.9883-1.4805-10.492l-0.23828-5.2812c-0.10547-1.7188-0.30859-3.1719-0.23828-6.6914v-17.84-68.266-229.46h100.62l-168.83-284.87-168.82 284.89h100.65v229.46 68.266 17.84c-0.078125 2.4805 0.10547 7.0273 0.30859 11.359l0.70703 12.895c0.78516 8.6016 2.293 17.254 3.7734 25.906 2.2148 8.5352 4.0117 17.281 7 25.691 11.453 33.852 30.934 66.148 57.945 92.094 26.973 25.773 60.762 46.332 98.613 56.293 18.746 5.5469 38.465 7.6406 58.094 8.2383 14.148 0.027344 28.387 0.066406 42.707 0.09375h85.359 174.15 87.398 43.492 5.4141c1.6406 0.027344 3.6016 0.011719 6.4258-0.13281l15.332-0.77344c10.188-0.78516 20.359-2.4805 30.359-4.4922 40.027-8.9219 77.266-28.375 106.43-55.785 29.691-26.922 50.812-61.961 62.895-99 11.586-37.426 13.254-76.453 6.2539-113.31-7.2383-36.891-23.797-70.863-45.945-98.742z"/>
</svg>
