<?xml version="1.0" encoding="UTF-8"?>
<svg width="1200pt" height="1200pt" version="1.1" viewBox="0 0 1200 1200" xmlns="http://www.w3.org/2000/svg">
 <path d="m1079.6 484.96c-3.0938-12.133-6.1719-26.254-12.215-41.281-11.121-30.188-29.734-65.465-59.922-98.746-14.691-16.945-33.094-32.398-53.52-47.027-20.988-13.773-44.215-27.027-70.52-35.812-12.867-5.2148-26.801-7.9727-40.707-11.613-14.188-2.1055-28.641-5.1602-43.492-5.4141l-11.199-0.51953c-3.7461-0.1875-7.6797-0.35938-10.281-0.28125h-17.785-36.359-154.69-81.691-41.641-26.254l-6.668 0.26562-13.52 0.65234c-72.375 4.3203-144.17 36.332-196.09 88.547-52.215 51.934-84.215 123.72-88.547 196.09-5.4922 72.188 17.348 144.89 58.309 200.21 40.465 56.172 99.188 94.613 159.89 112.57 7.6797 1.9727 15.309 3.9336 22.867 5.8516 7.6523 1.5859 15.332 2.5469 22.945 3.7461 7.6016 1.3867 15.188 1.8008 22.734 2.1328l11.281 0.51953c3.8281 0.21484 7.5742 0.33203 10.16 0.28125h66.934 203.91v100.62l284.87-168.83-284.86-168.86v100.65h-203.91-66.934c-3.2266 0.054687-5.2812-0.10547-7.2656-0.26562l-6.2812-0.33203c-4.2148-0.13281-8.4648-0.23828-12.625-1.1484-4.1875-0.76172-8.4648-1.1484-12.68-2-4.1719-1.0664-8.3867-2.1602-12.602-3.2539-33.281-9.9727-66.066-31.066-88.414-62.375-22.602-30.785-35.387-70.281-32.188-110.76 2.4805-40.078 19.867-79.398 48.879-108.44 29.039-29.012 68.359-46.398 108.44-48.879l7.5469-0.38672 3.8281-0.23828h26.254 41.641 81.691 154.69 36.359 17.785c3.2812-0.054688 5.2148 0.13281 7.2383 0.26562l6.2266 0.33203c8.3594-0.16016 16.227 2.0273 24.148 2.8398 7.5469 2.375 15.359 3.3867 22.375 6.5352 28.879 9.9727 52.055 27.375 68.602 45.852 16.773 18.465 27.055 37.973 33.148 54.586 3.5195 8.1992 4.8945 16.066 6.8008 22.707 1.3984 6.7734 1.9336 12.652 2.8672 17.348 0.51953 9.5586 0.8125 14.668 0.8125 14.668l136.39-3.0664s-0.16016-9.1875-1.5859-26.359c-1.375-8.5273-2.6016-19.129-5.1758-31.395z"/>
</svg>
